<svg width="400" height="408.05861" xmlns="http://www.w3.org/2000/svg"><g fill-rule="evenodd"><path d="M193.2 63.147c0 .191-.761.45-1.691.575-.931.124-1.756.418-1.834.652-.078.234-.487.426-.908.426-.422 0-.767.18-.767.4 0 .22-.242.4-.538.4-.296 0-.864.36-1.262.8-.398.44-.903.8-1.121.8-.218 0-1.465 1.035-2.77 2.3-1.306 1.265-3.169 3.07-4.141 4.011-.973.94-1.768 1.885-1.768 2.1 0 .214-.284.389-.632.389-.348 0-1.673 1.035-2.946 2.3-1.272 1.265-2.923 2.86-3.668 3.544-.745.684-1.619 1.629-1.942 2.1-.324.471-.808.856-1.076.856-.269 0-2.46 1.943-4.87 4.317-2.409 2.374-5.185 4.976-6.168 5.781-.983.806-3.619 3.273-5.859 5.483-2.24 2.211-4.202 4.019-4.36 4.019-.158 0-2.496 2.16-5.196 4.8-2.701 2.64-5 4.8-5.11 4.8-.247 0-2.667 2.259-6.03 5.629-1.575 1.579-3.348 3.171-3.53 3.171-.117 0-.213-3.33-.213-7.4V108H96.4v41.459l-2.395 2.471c-1.317 1.358-2.542 2.47-2.722 2.47-.18 0-2.321 1.941-4.758 4.313-2.437 2.373-5.217 4.962-6.178 5.753-.961.792-3.776 3.441-6.255 5.887-2.48 2.446-4.601 4.447-4.715 4.447-.315 0-1.687 1.28-6.092 5.685-.22.22-1.229 1.196-2.242 2.168-1.014.973-1.843 1.943-1.843 2.158 0 .214-.269.389-.597.389-.923 0-2.538 1.593-2.792 2.755-.261 1.191 3.11 11.899 5.397 17.145.713 1.637 1.149 2.682 1.792 4.3 1.313 3.3 2.078 4.95 5 10.785 3.944 7.873 3.306 7.742 9.151 1.881 2.668-2.676 4.976-4.866 5.129-4.866.153 0 .827-.538 1.499-1.196.671-.657 3.291-3.224 5.821-5.703 2.53-2.478 5.094-4.824 5.697-5.211l1.097-.705.103 26.108.103 26.107 14.1.105 14.1.105v-79.533l4.638-4.639c2.551-2.551 4.762-4.638 4.913-4.638.151 0 3.129-2.79 6.617-6.2s6.455-6.2 6.592-6.2c.138 0 3.105-2.79 6.595-6.2 3.49-3.41 6.446-6.2 6.569-6.2.238 0 .769-.507 8.161-7.786 2.577-2.538 4.813-4.614 4.969-4.614.156 0 1.041-.765 1.968-1.7 1.525-1.539 3.638-3.615 4.835-4.751.832-.79 3.934-3.893 4.424-4.426.748-.814 1.658-1.523 1.955-1.523.148 0 2.032-1.755 4.187-3.9 2.154-2.145 4.515-4.461 5.247-5.148.731-.686 1.622-1.64 1.98-2.119.643-.863.706-.817 6.387 4.748 3.155 3.09 5.847 5.619 5.981 5.619.135 0 2.623 2.33 5.529 5.178 2.907 2.848 5.597 5.277 5.98 5.399.382.121.96.606 1.284 1.078.324.472 1.195 1.417 1.936 2.101.74.684 2.754 2.639 4.474 4.344 1.72 1.705 3.235 3.1 3.367 3.1.131 0 .853.585 1.604 1.3.75.715 1.599 1.499 1.886 1.743.287.243.907.873 1.378 1.4 2.217 2.479 6.56 6.357 7.119 6.357.344 0 .625.175.625.389 0 .317 1.673 2.076 4.058 4.268.205.189 1.221 1.202 2.257 2.252 3.299 3.341 4.32 4.291 4.614 4.291.158 0 2.309 2.005 4.779 4.455 2.471 2.45 5.109 4.925 5.864 5.5.754.575 3.712 3.34 6.574 6.145 2.861 2.805 5.312 5.1 5.447 5.1.135 0 2.819 2.52 5.964 5.6 3.146 3.08 5.858 5.6 6.027 5.6.169 0 2.56 2.25 5.314 5s5.124 5 5.266 5c.297 0 2.467 1.971 4.351 3.951.707.743 1.717 1.733 2.244 2.2.527.467 1.882 1.769 3.01 2.894 1.128 1.124 2.452 2.171 2.941 2.327.49.155.89.445.89.644 0 .299 1.649 2.021 4.006 4.184.24.22 1.012.986 1.715 1.702 2.174 2.212 4.241 4.098 4.492 4.098.131 0 1.242 1.019 2.467 2.264 2.738 2.782 2.851 2.73 4.987-2.264.894-2.09 1.878-4.374 2.187-5.076 1.605-3.65 5.411-15.034 6.992-20.915.444-1.655 1.051-3.909 1.347-5.009.524-1.942.423-4.2-.187-4.2-.165 0-1.111-.81-2.101-1.8s-1.921-1.8-2.069-1.8c-.297 0-1.207-.709-1.955-1.523-.439-.478-2.059-2.09-5.302-5.277-.672-.66-1.356-1.2-1.52-1.2-.164 0-1.52-1.215-3.014-2.7-2.784-2.767-4.719-4.5-5.023-4.5-.094 0-2.012-1.8-4.261-4-2.25-2.2-4.243-4-4.428-4-.185 0-1.821-1.486-3.635-3.302-1.814-1.816-4.018-3.834-4.898-4.484-.88-.65-2.452-2.089-3.493-3.198l-1.893-2.016-.007-21.1L300 108h-28.4l-.032 7.9c-.017 4.345-.122 7.675-.233 7.4-.111-.275-.373-.5-.583-.5-.331 0-2.271-1.831-9.352-8.824-.88-.869-1.72-1.579-1.866-1.578-.146.001-2.557-2.248-5.358-4.998-2.8-2.75-5.235-5-5.411-5-.176 0-2.854-2.52-5.951-5.6-3.097-3.08-5.715-5.6-5.819-5.6-.31 0-1.949-1.504-6.581-6.04-2.416-2.364-4.757-4.415-5.203-4.556-.446-.142-.811-.42-.811-.618 0-.197-.61-.95-1.356-1.673-6.212-6.018-8.654-8.313-8.847-8.313-.271 0-1.749-1.321-3.469-3.1-.691-.715-1.498-1.3-1.792-1.3-.295 0-.536-.18-.536-.4 0-.22-.345-.4-.767-.4-.421 0-.83-.192-.908-.426-.078-.234-.903-.528-1.834-.652-.93-.125-1.691-.384-1.691-.575 0-.191-2.25-.347-5-.347s-5 .156-5 .347m-23.905 135.186c-.395.25-.483 3.301-.4 13.894L169 225.8h27.6l.105-13.573c.083-10.593-.005-13.644-.4-13.894-.278-.176-6.355-.321-13.505-.321s-13.227.145-13.505.321M202 212v14h26.8v-28H202v14m-32.928 17.062c-.386.385-.327 26.632.061 27.243.25.395 3.301.483 13.894.4l13.573-.105V229l-13.628-.105c-7.496-.058-13.751.017-13.9.167M202 242.8v14h26.8v-28H202v14" fill="#008837"/><path d="M129.2 26.4c0 .237-1.467.4-3.6.4s-3.6.163-3.6.4c0 .226-1.133.4-2.6.4-1.43 0-2.6.161-2.6.358 0 .196-1.62.485-3.6.642-1.98.157-3.6.446-3.6.642 0 .197-.81.358-1.8.358s-1.8.18-1.8.4c0 .22-.619.4-1.376.4-.757 0-1.488.18-1.624.4-.136.22-.867.4-1.624.4-.757 0-1.376.18-1.376.4 0 .22-.45.4-1 .4s-1 .159-1 .354c0 .195-.99.478-2.2.629-1.21.151-2.2.442-2.2.646 0 .204-.54.371-1.2.371-.66 0-1.2.18-1.2.4 0 .22-.45.4-1 .4s-1 .18-1 .4c0 .22-.54.4-1.2.4-.66 0-1.2.18-1.2.4 0 .22-.36.4-.8.4-.44 0-.8.166-.8.368 0 .203-.585.488-1.3.634-1.705.348-3.5 1.115-3.5 1.496 0 .166-.36.302-.8.302-.44 0-.8.18-.8.4 0 .22-.36.4-.8.4-.44 0-.8.18-.8.4 0 .22-.27.4-.6.4-.33 0-.6.18-.6.4 0 .22-.269.4-.597.4-.834 0-3.803 1.323-3.803 1.694 0 .168-.32.306-.712.306-.391 0-.971.36-1.288.8-.317.44-.807.8-1.088.8-.282 0-.512.18-.512.4 0 .22-.347.4-.771.4-.425 0-1.042.27-1.372.6-.33.33-.791.6-1.025.6-.234 0-.65.36-.925.8-.275.44-.776.8-1.115.8-.338 0-.875.36-1.192.8-.317.44-.872.8-1.232.8-.361 0-.994.45-1.407 1-.413.55-.96 1-1.216 1s-1.095.63-1.865 1.4c-.77.77-1.554 1.4-1.742 1.4-.288 0-1.49 1.09-3.995 3.623-.252.254-1.268 1.272-2.258 2.262s-1.979 1.981-2.199 2.201c-.22.22-1.049 1.017-1.843 1.771-.794.753-1.443 1.551-1.443 1.772 0 .222-.72 1.108-1.6 1.971-.88.863-1.6 1.775-1.6 2.027 0 .252-.45.812-1 1.244-.55.433-1 1.094-1 1.47 0 .375-.36.942-.8 1.259-.44.317-.8.807-.8 1.088 0 .282-.15.512-.332.512-.183 0-.588.495-.9 1.1-.313.605-.793 1.338-1.068 1.629-.275.29-.5.785-.5 1.1 0 .314-.18.571-.4.571-.22 0-.4.36-.4.8 0 .44-.18.8-.4.8-.22 0-.4.36-.4.8 0 .44-.146.8-.325.8-.179 0-.573.63-.875 1.4-.302.77-.676 1.4-.83 1.4-.155 0-.399.63-.544 1.4-.144.77-.434 1.4-.644 1.4-.21 0-.382.36-.382.8 0 .44-.18.8-.4.8-.22 0-.4.36-.4.8 0 .44-.18.8-.4.8-.22 0-.4.439-.4.976 0 .537-.18 1.088-.4 1.224-.22.136-.4.687-.4 1.224 0 .537-.167.976-.371.976s-.495.99-.646 2.2c-.151 1.21-.434 2.2-.629 2.2s-.354.439-.354.976c0 .537-.18 1.088-.4 1.224-.22.136-.4.867-.4 1.624 0 .757-.18 1.376-.4 1.376-.22 0-.4.63-.4 1.4 0 .77-.18 1.4-.4 1.4-.22 0-.4.594-.4 1.32 0 .726-.177 1.497-.392 1.712-.216.216-.513 2.232-.66 4.48-.148 2.249-.421 4.088-.608 4.088s-.34 5.13-.34 11.4c0 6.27.153 11.4.34 11.4.187 0 .465 2.385.618 5.3.153 2.915.45 5.36.66 5.433.21.074.382.929.382 1.9 0 .972.18 1.767.4 1.767.22 0 .4.799.4 1.776s.18 1.888.4 2.024c.22.136.4.867.4 1.624 0 .757.18 1.376.4 1.376.22 0 .4.63.4 1.4 0 .77.159 1.4.353 1.4.195 0 .479 1.17.632 2.6.153 1.43.444 2.6.647 2.6.202 0 .368.439.368.976 0 .537.18 1.088.4 1.224.22.136.4.766.4 1.4 0 .634.18 1.264.4 1.4.22.136.4.687.4 1.224 0 .537.18.976.4.976.22 0 .4.36.4.8 0 .44.157.8.348.8.192 0 .467.893.612 1.984.145 1.091.438 2.091.652 2.223.213.132.388.68.388 1.217s.18.976.4.976c.22 0 .4.36.4.8 0 .44.18.8.4.8.22 0 .4.324.4.72 0 .855.887 2.872 1.265 2.877.146.002.386.722.535 1.601.148.879.434 1.699.635 1.824.201.124.365.575.365 1.002 0 .427.18.776.4.776.22 0 .4.36.4.8 0 .44.18.8.4.8.22 0 .4.36.4.8 0 .44.18.8.4.8.22 0 .4.27.4.6 0 .33.16.6.355.6.196 0 .474.63.619 1.4.144.77.434 1.4.644 1.4.21 0 .382.36.382.8 0 .44.18.8.4.8.22 0 .4.36.4.8 0 .44.18.8.4.8.22 0 .4.27.4.6 0 .33.18.6.4.6.22 0 .4.36.4.8 0 .44.16.8.355.8.196 0 .474.63.619 1.4.144.77.434 1.4.644 1.4.21 0 .382.36.382.8 0 .44.18.8.4.8.22 0 .4.236.4.525 0 .288.36.911.8 1.383.44.472.8 1.046.8 1.275 0 .229.158.417.35.417.193 0 .45.495.573 1.1.122.605.594 1.497 1.05 1.983.455.486.827 1.161.827 1.5 0 .339.18.617.4.617.22 0 .4.294.4.653 0 .359.334.944.743 1.3.408.356.87 1.052 1.027 1.547.156.495.452.9.657.9.205 0 .373.36.373.8 0 .44.18.8.4.8.22 0 .4.23.4.512 0 .281.36.771.8 1.088.44.317.8.897.8 1.288 0 .392.139.712.309.712.17 0 .648.63 1.063 1.4.415.77.906 1.4 1.091 1.4.185 0 .337.243.337.541 0 .297.521 1.086 1.158 1.752.637.666 1.279 1.593 1.427 2.059.148.467.437.848.642.848.205 0 .373.254.373.564 0 .311.54 1.019 1.2 1.575.66.555 1.2 1.214 1.2 1.464s.225.705.5 1.012c1.096 1.221 1.5 1.763 1.5 2.008 0 .141.54.76 1.2 1.377.66.617 1.2 1.303 1.2 1.526 0 .223.63 1.054 1.4 1.847.77.793 1.404 1.663 1.409 1.934.004.271.634 1.031 1.4 1.689.765.658 1.391 1.396 1.391 1.641 0 .502 1.836 2.463 3.138 3.351.474.324.862.868.862 1.209 0 .341.405 1.017.9 1.502 3.244 3.179 3.9 3.907 3.9 4.328 0 .207 2.996 3.431 4.755 5.116.197.189.986.976 1.754 1.748.767.773 1.755 1.765 2.195 2.205l2.2 2.2 2.2 2.2c.44.44 1.407 1.402 2.148 2.138.742.737 1.528 1.527 1.748 1.756 2.746 2.862 6.243 6.01 6.676 6.01.301 0 .812.392 1.136.87.323.479 1.193 1.424 1.932 2.1.739.677 1.766 1.635 2.282 2.13.516.495 1.042.9 1.169.9s.846.585 1.597 1.3c1.764 1.681 2.519 2.3 2.804 2.3.127 0 .861.63 1.631 1.4.77.77 1.552 1.4 1.738 1.4.186 0 1.08.72 1.987 1.6.907.88 1.848 1.6 2.091 1.6.243 0 .796.45 1.228 1 .433.55 1.062 1 1.398 1 .335 0 1.114.54 1.731 1.2.617.66 1.237 1.2 1.379 1.2.141 0 .707.45 1.257 1 .55.55 1.34 1 1.755 1 .415 0 .866.349 1.001.775.135.426.777 1.01 1.427 1.298.65.287 1.181.617 1.181.734 0 .116.63.55 1.4.965.77.415 1.4.906 1.4 1.091 0 .185.32.337.712.337.391 0 .971.36 1.288.8.317.44.807.8 1.088.8.282 0 .512.177.512.392 0 .216.495.515 1.1.664.605.15 1.391.603 1.747 1.008.356.405.811.736 1.012.736.2 0 .624.36.941.8.317.44.897.8 1.288.8.392 0 .712.177.712.392 0 .216.45.506 1 .644s1 .411 1 .607c0 .197.32.357.712.357.391 0 .971.36 1.288.8.317.44.779.8 1.026.8.248 0 .773.356 1.167.792.394.436 1.322.906 2.062 1.045.74.138 1.345.412 1.345.608 0 .195.23.355.512.355.281 0 .771.36 1.088.8.317.44.897.8 1.288.8.392 0 .712.18.712.4 0 .22.248.4.551.4.303 0 .775.27 1.049.6.274.33.836.6 1.249.6.413 0 .751.18.751.4 0 .22.36.4.8.4.44 0 .8.18.8.4 0 .22.27.4.6.4.33 0 .6.18.6.4 0 .22.36.4.8.4.44 0 .8.18.8.4 0 .22.36.4.8.4.44 0 .8.16.8.357 0 .196.45.469 1 .607s1 .428 1 .644c0 .215.36.392.8.392.44 0 .8.18.8.4 0 .22.36.4.8.4.44 0 .801.135.803.3.005.432 2.045 1.318 2.453 1.065 1.012-.625-.756-3.365-2.171-3.365-.279 0-.768-.36-1.085-.8-.317-.44-.725-.8-.906-.8-.182 0-.78-.45-1.33-1s-1.34-1-1.755-1c-.415 0-.86-.331-.989-.736-.128-.405-.725-.99-1.327-1.3-.601-.31-1.506-.969-2.011-1.464-.505-.495-1.104-.9-1.332-.9-.227 0-1.104-.72-1.95-1.6-.846-.88-1.688-1.6-1.873-1.6-.184 0-.82-.45-1.414-1-.593-.55-1.356-1-1.696-1-.339 0-.617-.172-.617-.382 0-.633-1.814-2.244-3.148-2.797-.689-.285-1.252-.675-1.252-.866 0-.45-2.408-2.755-2.878-2.755-.198 0-1.181-.81-2.186-1.8-1.004-.99-1.989-1.8-2.19-1.8-.2 0-1.305-.945-2.455-2.1-1.15-1.155-2.811-2.638-3.691-3.295-.88-.657-2.883-2.502-4.452-4.1-1.568-1.598-3.131-2.905-3.473-2.905-.342 0-.735-.36-.875-.8-.14-.44-.412-.8-.605-.8-.275 0-5.153-4.8-13.104-12.896-.16-.163-1.056-1.004-1.991-1.869s-1.7-1.782-1.7-2.039c0-.257-1.44-1.886-3.2-3.62-1.76-1.734-3.2-3.346-3.2-3.582 0-.236-.99-1.395-2.2-2.577-1.21-1.181-2.2-2.3-2.2-2.485 0-.186-.585-.906-1.3-1.601-1.684-1.636-2.3-2.407-2.3-2.879 0-.209-.521-.819-1.158-1.355-.637-.536-1.432-1.497-1.766-2.136-.335-.639-.983-1.558-1.442-2.044-.459-.486-.834-.989-.834-1.118 0-.13-.405-.669-.9-1.198-1.438-1.538-1.9-2.145-1.9-2.496 0-.181-.36-.588-.8-.905-.44-.317-.8-.831-.8-1.141 0-.311-.328-.856-.728-1.212-.401-.356-1.07-1.232-1.487-1.947-.416-.715-.899-1.3-1.071-1.3-.173 0-.314-.236-.314-.525 0-.288-.36-.911-.8-1.383-.44-.472-.8-1.046-.8-1.275 0-.229-.147-.417-.326-.417-.179 0-.628-.585-.997-1.3-.922-1.784-1.569-2.779-2.277-3.5-.696-.709-1.313-1.676-2.235-3.5-.361-.715-.816-1.3-1.011-1.3-.195 0-.354-.36-.354-.8 0-.44-.18-.8-.4-.8-.22 0-.4-.204-.4-.453 0-.249-.336-.744-.746-1.1-.411-.356-.875-1.233-1.032-1.947-.157-.715-.451-1.3-.654-1.3-.202 0-.368-.32-.368-.712 0-.391-.36-.971-.8-1.288-.44-.317-.8-.897-.8-1.288 0-.392-.18-.712-.4-.712-.22 0-.4-.188-.4-.417 0-.23-.47-.905-1.044-1.5-1.092-1.132-8.956-16.865-8.956-17.918 0-.134-.288-.901-.641-1.705-.352-.803-.799-1.82-.992-2.26-2.427-5.522-5.6-15.819-5.325-17.282.159-.848.089-1.318-.197-1.318-.245 0-.445-.63-.445-1.4 0-.77-.165-1.4-.366-1.4-.201 0-.492-1.35-.647-3-.154-1.65-.44-3-.634-3s-.353-.81-.353-1.8-.18-1.8-.4-1.8c-.22 0-.4-.889-.4-1.976s-.18-2.088-.4-2.224c-.22-.136-.4-1.227-.4-2.424 0-1.197-.18-2.176-.4-2.176-.233 0-.4-1.333-.4-3.2 0-1.867-.167-3.2-.4-3.2-.257 0-.4-3.933-.4-11s.143-11 .4-11c.226 0 .4-1.133.4-2.6s.174-2.6.4-2.6c.22 0 .4-.99.4-2.2 0-1.21.18-2.2.4-2.2.22 0 .4-.72.4-1.6 0-.88.18-1.6.4-1.6.22 0 .4-.619.4-1.376 0-.757.162-1.477.361-1.6.198-.122.486-1.303.639-2.623.153-1.321.441-2.401.639-2.401.199 0 .361-.45.361-1s.18-1 .4-1c.22 0 .4-.54.4-1.2 0-.66.135-1.201.3-1.203.406-.004 1.3-1.983 1.3-2.877 0-.396.16-.72.355-.72.196 0 .474-.63.619-1.4.144-.77.434-1.4.644-1.4.21 0 .382-.36.382-.8 0-.44.18-.8.4-.8.22 0 .4-.36.4-.8 0-.44.18-.8.4-.8.22 0 .4-.27.4-.6 0-.33.18-.6.4-.6.22 0 .4-.36.4-.8 0-.44.18-.8.4-.8.22 0 .4-.338.4-.751s.27-.975.6-1.249c.33-.274.6-.746.6-1.049 0-.303.18-.551.4-.551.22 0 .4-.32.4-.712 0-.391.36-.971.8-1.288.44-.317.8-.807.8-1.088 0-.282.177-.512.392-.512.216 0 .514-.495.661-1.1.148-.605.781-1.531 1.408-2.058.626-.527 1.139-1.118 1.139-1.314 0-.369 1.138-1.724 2.7-3.214.495-.472.9-1.003.9-1.179C73.6 82.674 84.324 72 84.787 72c.213 0 1.016-.63 1.786-1.4.77-.77 1.503-1.4 1.628-1.4s.626-.366 1.113-.814c1.059-.974 3.801-2.786 4.215-2.786.162 0 .554-.36.871-.8.317-.44.897-.8 1.288-.8.392 0 .712-.139.712-.309 0-.17.63-.648 1.4-1.063.77-.415 1.4-.906 1.4-1.091 0-.185.36-.337.8-.337.44 0 .8-.18.8-.4 0-.22.27-.4.6-.4.33 0 .6-.18.6-.4 0-.22.36-.4.8-.4.44 0 .8-.153.8-.34 0-.187.81-.673 1.8-1.082.99-.408 1.8-.885 1.8-1.06 0-.175.36-.318.8-.318.44 0 .8-.18.8-.4 0-.22.45-.4 1-.4s1-.18 1-.4c0-.22.36-.4.8-.4.44 0 .8-.16.8-.355 0-.196.63-.474 1.4-.619.77-.144 1.4-.434 1.4-.644 0-.21.54-.382 1.2-.382.66 0 1.2-.18 1.2-.4 0-.22.45-.4 1-.4s1-.18 1-.4c0-.22.36-.4.8-.4.44 0 .8-.18.8-.4 0-.22.54-.4 1.2-.4.66 0 1.2-.167 1.2-.371s.992-.495 2.205-.647c1.213-.152 2.304-.434 2.424-.629.12-.194.748-.353 1.395-.353s1.176-.18 1.176-.4c0-.22.63-.4 1.4-.4.77 0 1.4-.18 1.4-.4 0-.22.72-.4 1.6-.4.88 0 1.6-.18 1.6-.4 0-.22.81-.4 1.8-.4s1.8-.166 1.8-.368c0-.202 1.8-.495 4-.651 2.2-.156 4-.441 4-.633 0-.191 1.17-.348 2.6-.348 1.467 0 2.6-.174 2.6-.4 0-.237 1.467-.4 3.6-.4s3.6-.163 3.6-.4c0-.258 4.392-.4 12.376-.4 7.82 0 12.468.147 12.624.4.136.22 1.857.4 3.824.4 2.117 0 3.576.163 3.576.4 0 .22.979.4 2.176.4s2.275.158 2.394.352c.12.194 1.931.48 4.024.637 2.093.157 3.806.449 3.806.648 0 .2.63.363 1.4.363.77 0 1.4.18 1.4.4 0 .22.72.4 1.6.4.88 0 1.6.18 1.6.4 0 .22.63.4 1.4.4.77 0 1.4.18 1.4.4 0 .22.439.4.976.4.537 0 1.078.163 1.201.363.123.199 1.124.486 2.223.637 1.1.151 2 .438 2 .638 0 .199.54.362 1.2.362.66 0 1.2.18 1.2.4 0 .22.27.4.6.4.373 0 .6-.378.6-1 0-.55-.182-1-.404-1-.222 0-.968-.54-1.659-1.2-.691-.66-1.499-1.2-1.796-1.2-.298 0-.541-.177-.541-.392 0-.216-.45-.506-1-.644s-1-.411-1-.607c0-.197-.32-.357-.712-.357-.391 0-.971-.36-1.288-.8-.317-.44-.807-.8-1.088-.8-.282 0-.512-.18-.512-.4 0-.22-.36-.4-.8-.4-.44 0-.8-.16-.8-.355 0-.196-.591-.467-1.313-.602-.722-.136-1.572-.606-1.888-1.045-.338-.468-1.035-.798-1.687-.798-.612 0-1.112-.18-1.112-.4 0-.22-.27-.4-.6-.4-.33 0-.6-.18-.6-.4 0-.22-.36-.4-.8-.4-.44 0-.8-.16-.8-.355 0-.196-.63-.474-1.4-.619-.77-.144-1.4-.434-1.4-.644 0-.21-.54-.382-1.2-.382-.66 0-1.2-.18-1.2-.4 0-.22-.36-.4-.8-.4-.44 0-.8-.18-.8-.4 0-.22-.45-.4-1-.4s-1-.18-1-.4c0-.22-.439-.4-.976-.4-.537 0-1.08-.167-1.207-.372-.126-.205-1.217-.495-2.423-.646-1.207-.151-2.194-.433-2.194-.628S187.77 32 187 32c-.77 0-1.4-.18-1.4-.4 0-.22-.439-.4-.976-.4-.537 0-1.088-.18-1.224-.4-.136-.22-.867-.4-1.624-.4-.757 0-1.376-.18-1.376-.4 0-.22-.81-.4-1.8-.4s-1.8-.161-1.8-.358c0-.196-1.62-.485-3.6-.642-1.98-.157-3.6-.446-3.6-.642 0-.197-1.17-.358-2.6-.358-1.467 0-2.6-.174-2.6-.4 0-.237-1.467-.4-3.6-.4s-3.6-.163-3.6-.4c0-.259-4.933-.4-14-.4s-14 .141-14 .4m104.2 0c-.136.22-1.857.4-3.824.4-2.117 0-3.576.163-3.576.4 0 .229-1.2.4-2.8.4-1.54 0-2.8.157-2.8.348 0 .192-1.798.476-3.996.632-2.198.156-4.098.449-4.224.652-.125.202-.847.368-1.604.368-.757 0-1.376.18-1.376.4 0 .22-.81.4-1.8.4s-1.8.18-1.8.4c0 .22-.521.4-1.157.4-.686 0-1.256.258-1.4.633-.372.968-.293 1.367.269 1.367.281 0 .771.36 1.088.8.317.44.897.8 1.288.8.392 0 .712.143.712.318 0 .175.81.652 1.8 1.06.99.409 1.8.895 1.8 1.082 0 .187.317.34.704.34.387 0 .928.36 1.203.8.275.44.686.8.913.8.227 0 .754.315 1.17.7.416.385 1.443 1.058 2.283 1.494.84.437 1.799 1.067 2.131 1.4 1.349 1.352 2.42 1.606 6.767 1.606 2.41 0 4.476.152 4.591.339.115.186 2.871.463 6.124.616 3.253.153 5.974.451 6.047.661.074.211 1.109.384 2.3.384 1.192 0 2.167.18 2.167.4 0 .22.9.4 2 .4s2 .18 2 .4c0 .22.81.4 1.8.4s1.8.18 1.8.4c0 .22.619.4 1.376.4.757 0 1.482.17 1.61.377.128.207 1.488.5 3.023.651 1.535.152 2.791.432 2.791.624 0 .191.45.348 1 .348s1 .18 1 .4c0 .22.54.4 1.2.4.66 0 1.2.18 1.2.4 0 .22.45.4 1 .4s1 .18 1 .4c0 .22.529.4 1.176.4.647 0 1.278.164 1.402.365.125.201.945.487 1.824.635.879.149 1.598.434 1.598.635s.45.365 1 .365 1 .18 1 .4c0 .22.36.4.8.4.44 0 .8.18.8.4 0 .22.36.4.8.4.44 0 .8.18.8.4 0 .22.45.4 1 .4s1 .16 1 .355c0 .196.63.474 1.4.619.77.144 1.4.434 1.4.644 0 .21.36.382.8.382.44 0 .8.18.8.4 0 .22.36.4.8.4.44 0 .8.18.8.4 0 .22.27.4.6.4.33 0 .6.18.6.4 0 .22.283.4.629.4.345 0 .898.27 1.228.6.33.33.947.6 1.372.6.424 0 .771.18.771.4 0 .22.188.4.417.4.229 0 .803.36 1.275.8.472.44 1.095.8 1.383.8.289 0 .525.18.525.4 0 .22.248.4.551.4.303 0 .775.27 1.049.6.274.33.764.6 1.088.6.325 0 1.095.54 1.712 1.2.617.66 1.237 1.2 1.378 1.2.141 0 .742.45 1.335 1 .594.55 1.317 1 1.609 1 .291 0 .984.54 1.539 1.2.556.66 1.174 1.2 1.373 1.2.515 0 5.279 4.604 13.077 12.638.94.969 1.885 1.762 2.1 1.762.214 0 .389.317.389.704 0 .387.45 1.189 1 1.783.55.593 1 1.194 1 1.335 0 .141.51.734 1.133 1.318.623.583 1.256 1.555 1.407 2.16.152.605.452 1.1.668 1.1.215 0 .392.23.392.512 0 .281.36.771.8 1.088.44.317.8.857.8 1.2 0 .343.36.883.8 1.2.44.317.8.735.8.928 0 .695 1.375 3.286 2.08 3.919.396.356.72.941.72 1.3 0 .359.18.653.4.653.22 0 .4.36.4.8 0 .44.166.8.368.8.203 0 .484.585.624 1.3.283 1.436 1.836 4.824 2.308 5.033.165.074.3.659.3 1.3 0 .642.18 1.167.4 1.167.22 0 .4.27.4.6 0 .33.159.6.354.6.195 0 .478.99.629 2.2.151 1.21.442 2.2.646 2.2.204 0 .371.619.371 1.376 0 .757.18 1.488.4 1.624.22.136.4.687.4 1.224 0 .537.18.976.4.976.22 0 .4.72.4 1.6 0 .88.18 1.6.4 1.6.22 0 .4.795.4 1.767 0 .971.168 1.826.373 1.9.205.073.5 2.338.656 5.033.157 2.695.439 4.9.628 4.9.476 0 .438 22.239-.04 23.105-.211.382-.499 3.17-.641 6.195-.142 3.025-.42 5.5-.617 5.5s-.359.99-.359 2.2c0 1.21-.18 2.2-.4 2.2-.22 0-.4.81-.4 1.8 0 1.071-.183 1.8-.452 1.8-.298 0-.384.604-.252 1.775.11.976-.034 2.641-.32 3.7-.287 1.059-.885 3.279-1.33 4.934-1.583 5.886-5.388 17.267-6.992 20.915-.309.702-1.288 2.986-2.175 5.076-1.021 2.405-1.919 3.945-2.446 4.195-.458.217-.833.712-.833 1.1 0 .388-.16.705-.355.705-.196 0-.474.63-.619 1.4-.144.77-.434 1.4-.644 1.4-.21 0-.382.36-.382.8 0 .44-.18.8-.4.8-.22 0-.4.345-.4.767 0 .421-.142.826-.316.9-.36.151-2.484 4.551-2.484 5.144 0 .214-.18.389-.4.389-.22 0-.4.36-.4.8 0 .44-.18.8-.4.8-.22 0-.4.27-.4.6 0 .33-.18.6-.4.6-.22 0-.4.36-.4.8 0 .44-.162.8-.36.8-.199 0-.694.809-1.1 1.799-.407.989-.875 1.799-1.04 1.8-.165 0-.3.295-.3.654 0 .359-.316.944-.703 1.3-.386.356-.971 1.187-1.3 1.847-.328.66-.822 1.438-1.097 1.729-.275.29-.5.836-.5 1.211 0 .376-.36.943-.8 1.26-.44.317-.8.807-.8 1.088 0 .282-.18.512-.4.512-.22 0-.4.294-.4.653 0 .359-.334.944-.743 1.3-.408.356-.87 1.052-1.027 1.547-.156.495-.452.9-.657.9-.205 0-.373.32-.373.712 0 .391-.36.971-.8 1.288-.44.317-.8.725-.8.906 0 .181-.45.814-1 1.407-.55.594-1 1.356-1 1.695 0 .338-.36.875-.8 1.192-.44.317-.8.725-.8.906 0 .182-.45.78-1 1.33s-1 1.145-1 1.323c0 .177-.54.887-1.2 1.578-.66.691-1.2 1.439-1.2 1.663 0 .224-.54.972-1.2 1.663-.66.691-1.2 1.401-1.2 1.578 0 .178-.45.773-1 1.323-.55.55-1 1.097-1 1.217 0 .119-.63.885-1.4 1.701-.77.817-1.4 1.807-1.4 2.201 0 .395-.18.717-.401.717-.471 0-3.199 2.813-3.199 3.299 0 .183-.679 1.001-1.508 1.817-.83.816-2.045 2.201-2.7 3.077-.656.876-2.317 2.737-3.692 4.135-1.375 1.398-2.5 2.699-2.5 2.89 0 .481-24.37 24.782-24.852 24.782-.215 0-1.906 1.53-3.759 3.4-1.854 1.87-3.472 3.4-3.596 3.4-.303 0-1.087.661-3.206 2.7-.971.935-1.859 1.7-1.973 1.7-.268 0-1.976 1.446-3.662 3.1-.729.715-1.429 1.3-1.556 1.3-.257 0-.967.563-2.397 1.9-.529.495-1.067.9-1.194.9s-.862.63-1.632 1.4c-.77.77-1.588 1.4-1.818 1.4-.23 0-1.109.72-1.955 1.6-.846.88-1.716 1.6-1.934 1.6-.219 0-1.046.63-1.839 1.4-.793.77-1.636 1.4-1.874 1.4-.238 0-.936.54-1.553 1.2-.617.66-1.311 1.2-1.542 1.2-.232 0-.872.45-1.422 1-.55.55-1.178 1-1.395 1-.218 0-.631.328-.918.728-.948 1.32-3.102 2.15-3.791 1.461-.324-.324-.846-.589-1.161-.589-.314 0-.571-.18-.571-.4 0-.22-.32-.4-.712-.4-.391 0-.971-.36-1.288-.8-.317-.44-.785-.8-1.039-.8-.255 0-.687-.27-.961-.6-.274-.33-.836-.6-1.249-.6-.413 0-.751-.18-.751-.4 0-.22-.317-.4-.704-.4-.387 0-.928-.36-1.203-.8-.275-.44-.729-.8-1.008-.8-.28 0-.768-.36-1.085-.8-.317-.44-.875-.8-1.239-.8-.365 0-.887-.27-1.161-.6-.274-.33-.746-.6-1.049-.6-.303 0-.551-.18-.551-.4 0-.22-.345-.4-.767-.4-.421 0-.826-.142-.9-.315-.194-.457-4.496-2.485-5.273-2.485-.363 0-.66-.18-.66-.4 0-.22-.45-.4-1-.4s-1-.18-1-.4c0-.22-.36-.4-.8-.4-.44 0-.8-.18-.8-.4 0-.22-.27-.4-.6-.4-.33 0-.6-.18-.6-.4 0-.22-.36-.4-.8-.4-.44 0-.8-.16-.8-.355 0-.196-.63-.474-1.4-.619-.77-.144-1.4-.434-1.4-.644 0-.21-.36-.382-.8-.382-.44 0-.8-.18-.8-.4 0-.22-.36-.4-.8-.4-.44 0-.8-.18-.8-.4 0-.22-.27-.4-.6-.4-.33 0-.6-.18-.6-.4 0-.22-.36-.4-.8-.4-.44 0-.8-.153-.8-.34 0-.187-.81-.673-1.8-1.082-.99-.408-1.8-.885-1.8-1.06 0-.175-.36-.318-.8-.318-.44 0-.8-.18-.8-.4 0-.22-.27-.4-.6-.4-.33 0-.6-.162-.6-.36 0-.199-.809-.694-1.799-1.1-.989-.407-1.799-.875-1.8-1.04 0-.165-.321-.3-.713-.3-.391 0-.971-.36-1.288-.8-.317-.44-.897-.8-1.288-.8-.392 0-.712-.143-.712-.318 0-.175-.81-.652-1.8-1.06-.99-.409-1.8-.895-1.8-1.082 0-.187-.188-.34-.417-.34-.229 0-.803-.36-1.275-.8-.472-.44-1.095-.8-1.383-.8-.289 0-.525-.18-.525-.4 0-.22-.36-.4-.8-.4-.44 0-.8-.168-.8-.373s-.405-.501-.9-.657c-.495-.157-1.191-.619-1.547-1.027-.356-.409-.901-.743-1.212-.743-.31 0-.824-.36-1.141-.8-.317-.44-.785-.8-1.039-.8-.255 0-.687-.27-.961-.6-.274-.33-.796-.6-1.161-.6-.364 0-.922-.36-1.239-.8-.317-.44-.724-.8-.905-.8-.181 0-.715-.36-1.187-.8-.472-.44-1.095-.8-1.383-.8-.289 0-.525-.168-.525-.373s-.401-.5-.892-.656c-.491-.156-1.373-.798-1.96-1.427-.588-.629-1.239-1.144-1.446-1.144-.208 0-.704-.36-1.102-.8-.398-.44-.958-.8-1.244-.8-.286 0-.97-.45-1.52-1s-1.106-1-1.236-1c-.13 0-.686-.45-1.236-1-.55-.55-1.165-1-1.365-1-.201 0-1.122-.72-2.047-1.6-.925-.88-1.845-1.6-2.044-1.6-.199 0-.956-.63-1.682-1.4-.726-.77-1.537-1.4-1.801-1.4s-1.256-.81-2.204-1.8c-.949-.99-1.934-1.8-2.191-1.8-.256 0-1.416-.99-2.579-2.2-1.162-1.21-2.375-2.2-2.694-2.2-.319 0-.845-.386-1.169-.857-.323-.471-1.001-1.236-1.505-1.7-.504-.464-1.688-1.608-2.631-2.543-.943-.935-1.843-1.7-2-1.7-.312 0-1.216-.699-1.971-1.526-2.679-2.931-3.535-3.362-3.814-1.92-.119.613 12.618 13.846 13.327 13.846.408 0 1.771 1.245 4.046 3.696 1.046 1.127 2.897 2.704 3.174 2.704.114 0 1.002.765 1.973 1.7 2.126 2.046 2.903 2.7 3.209 2.7.127 0 .861.63 1.631 1.4.77.77 1.552 1.4 1.738 1.4.186 0 1.08.72 1.987 1.6.907.88 1.82 1.6 2.029 1.6.209 0 .992.63 1.74 1.4.748.77 1.612 1.402 1.919 1.404.308.002.985.542 1.505 1.2.52.658 1.187 1.196 1.482 1.196.295 0 .987.45 1.537 1 .55.55 1.148 1 1.33 1 .181 0 .589.36.906.8.317.44.82.8 1.117.8.297 0 .791.225 1.098.5 1.277 1.145 1.769 1.5 2.08 1.5.181 0 .588.36.905.8.317.44.831.8 1.141.8.311 0 .856.334 1.212.743.356.408 1.052.87 1.547 1.027.495.156.9.452.9.657 0 .205.317.373.704.373.387 0 .928.36 1.203.8.275.44.702.8.949.8.248 0 .741.331 1.097.736.356.405 1.142.858 1.747 1.008.605.149 1.1.448 1.1.664 0 .215.23.392.512.392.281 0 .771.36 1.088.8.317.44.897.8 1.288.8.392 0 .712.18.712.4 0 .22.248.4.551.4.303 0 .775.27 1.049.6.274.33.836.6 1.249.6.413 0 .751.18.751.4 0 .22.188.4.417.4.229 0 .803.36 1.275.8.472.44 1.095.8 1.383.8.289 0 .525.18.525.4 0 .22.36.4.8.4.44 0 .8.16.8.357 0 .196.45.469 1 .607s1 .428 1 .644c0 .215.36.392.8.392.44 0 .8.146.8.325 0 .179.63.573 1.4.875.77.302 1.4.696 1.4.875 0 .179.36.325.8.325.44 0 .8.16.8.357 0 .196.45.469 1 .607s1 .428 1 .644c0 .215.36.392.8.392.44 0 .8.18.8.4 0 .22.345.4.767.4.421 0 .826.142.9.316.151.36 4.551 2.484 5.144 2.484.214 0 .389.18.389.4 0 .22.36.4.8.4.44 0 .8.18.8.4 0 .22.45.4 1 .4s1 .18 1 .4c0 .22.36.4.8.4.44 0 .8.18.8.4 0 .22.36.4.8.4.44 0 .8.172.8.382 0 .21.63.5 1.4.644.77.145 1.4.423 1.4.619 0 .195.54.355 1.2.355.66 0 1.2.18 1.2.4 0 .22.27.4.6.4.33 0 .6.18.6.4 0 .22.36.4.8.4.44 0 .8.18.8.4 0 .22.339.4.754.4s1.27.269 1.9.598c.63.328 1.461.598 1.846.6.385.001.7.182.7.402 0 .22.45.4 1 .4s1 .18 1 .4c0 .22.36.4.8.4 1.584 0 .718 1.991-1.119 2.574-.484.154-.881.448-.881.653 0 .205-.243.373-.541.373-.297 0-1.105.54-1.796 1.2-.691.66-1.437 1.2-1.659 1.2-.222 0-.404.153-.404.339 0 .187-.72.664-1.6 1.061-.88.397-1.6.874-1.6 1.061 0 .186-.23.339-.512.339-.281 0-.771.36-1.088.8-.317.44-.897.8-1.288.8-.392 0-.712.139-.712.309 0 .17-.63.648-1.4 1.063-.77.415-1.4.906-1.4 1.091 0 .185-.236.337-.525.337-.288 0-.911.36-1.383.8-.472.44-1.046.8-1.275.8-.229 0-.417.153-.417.339 0 .187-.72.664-1.6 1.061-.88.397-1.6.874-1.6 1.061 0 .186-.23.339-.512.339-.281 0-.771.36-1.088.8-.317.44-.897.8-1.288.8-.392 0-.712.177-.712.392 0 .216-.45.506-1 .644s-1 .411-1 .607c0 .197-.32.357-.712.357-.391 0-.971.36-1.288.8-.317.44-.741.8-.941.8-.201 0-.656.331-1.012.736-.356.405-1.113.851-1.682.991-2.522.622-4.364 3.473-2.245 3.473 1.054 0 3.072-.853 3.077-1.3.002-.165.543-.3 1.203-.3s1.2-.18 1.2-.4c0-.22.36-.4.8-.4.44 0 .8-.18.8-.4 0-.22.45-.4 1-.4s1-.16 1-.355c0-.196.63-.474 1.4-.619.77-.144 1.4-.434 1.4-.644 0-.21.343-.382.762-.382.816 0 4.15-1.601 4.371-2.1.074-.165.479-.3.9-.3.422 0 .767-.16.767-.355 0-.195.81-.476 1.8-.624.99-.149 1.8-.439 1.8-.646 0-.206.36-.375.8-.375.44 0 .8-.18.8-.4 0-.22.27-.4.6-.4.33 0 .6-.18.6-.4 0-.22.36-.4.8-.4.44 0 .8-.18.8-.4 0-.22.36-.4.8-.4.44 0 .8-.172.8-.382 0-.21.63-.5 1.4-.644.77-.145 1.4-.423 1.4-.619 0-.195.36-.355.8-.355.44 0 .8-.18.8-.4 0-.22.27-.4.6-.4.33 0 .6-.18.6-.4 0-.22.36-.4.8-.4.44 0 .8-.16.8-.355 0-.196.63-.474 1.4-.619.77-.144 1.4-.434 1.4-.644 0-.21.36-.382.8-.382.44 0 .8-.146.8-.325 0-.179.63-.573 1.4-.875.77-.302 1.4-.696 1.4-.875 0-.179.36-.325.8-.325.44 0 .8-.153.8-.34 0-.187.81-.673 1.8-1.082.99-.408 1.8-.885 1.8-1.06 0-.175.236-.318.525-.318.288 0 .911-.36 1.383-.8.472-.44 1.046-.8 1.275-.8.229 0 .417-.18.417-.4 0-.22.335-.4.744-.4s1.407-.45 2.218-1c.81-.55 1.646-1 1.856-1 .21 0 .382-.18.382-.4 0-.22.236-.4.525-.4.288 0 .873-.317 1.3-.705.426-.388 1.54-1.045 2.475-1.461.935-.416 1.7-.908 1.7-1.095 0-.186.23-.339.512-.339.281 0 .771-.36 1.088-.8.317-.44.897-.8 1.288-.8.392 0 .712-.168.712-.373s.405-.501.9-.657c.495-.157 1.191-.619 1.547-1.027.356-.409.941-.743 1.3-.743.359 0 .653-.18.653-.4 0-.22.26-.4.577-.4.318 0 .813-.332 1.1-.737.288-.406 1.198-1.056 2.023-1.446.825-.389 1.5-.868 1.5-1.063 0-.195.23-.354.512-.354.281 0 .771-.36 1.088-.8.317-.44.897-.8 1.288-.8.392 0 .712-.168.712-.373s.339-.481.753-.612c.415-.132 1.313-.774 1.997-1.427.683-.653 1.475-1.188 1.758-1.188.283 0 .78-.375 1.104-.834.323-.458 1.128-1.115 1.788-1.459.66-.344 1.491-.959 1.847-1.366.356-.408.785-.741.953-.741.168 0 .597-.333.953-.741.356-.407 1.204-1.027 1.884-1.378.681-.35 1.671-1.185 2.2-1.855.53-.67 1.215-1.22 1.523-1.222.307-.002 1.171-.634 1.919-1.404.748-.77 1.541-1.4 1.763-1.4.223 0 1.203-.81 2.179-1.8.976-.99 1.94-1.8 2.142-1.8.202 0 1.365-.99 2.585-2.2 1.219-1.21 2.36-2.2 2.535-2.2.174-.001.857-.543 1.517-1.207.66-.663 1.435-1.427 1.723-1.699.288-.272 1.318-1.259 2.29-2.194.971-.935 1.884-1.7 2.029-1.7.247 0 4.143-3.674 7.211-6.8.755-.77 1.554-1.58 1.775-1.8.22-.22.979-.992 1.686-1.715.707-.723 1.892-1.893 2.632-2.6.74-.707 1.73-1.698 2.2-2.202.47-.504 1.619-1.688 2.554-2.631.935-.943 1.7-1.843 1.7-2 0-.311.695-1.21 1.523-1.971 2.344-2.154 4.877-4.894 4.877-5.275 0-.125.765-1.022 1.7-1.993 2.041-2.121 2.7-2.903 2.7-3.207 0-.125.81-1.037 1.8-2.027.99-.99 1.8-1.989 1.8-2.221 0-.231.72-1.112 1.6-1.958.88-.846 1.6-1.654 1.6-1.797 0-.143.225-.511.5-.818 1.244-1.387 1.5-1.791 1.5-2.368 0-.339.152-.617.339-.617.547 0 2.061-1.451 2.061-1.975 0-.265.225-.733.5-1.04 1.096-1.221 1.5-1.763 1.5-2.008 0-.141.54-.76 1.2-1.377.66-.617 1.2-1.389 1.2-1.718 0-.328.27-.7.6-.827.33-.126.6-.523.6-.882s.54-1.156 1.2-1.773c.66-.617 1.2-1.319 1.2-1.56 0-.242.153-.44.339-.44.187 0 .664-.72 1.061-1.6.397-.88.874-1.6 1.061-1.6.186 0 .339-.188.339-.417 0-.229.36-.803.8-1.275.44-.472.8-1.095.8-1.383 0-.289.152-.525.337-.525.185 0 .676-.63 1.091-1.4.415-.77.893-1.4 1.063-1.4.17 0 .309-.36.309-.8 0-.44.18-.8.4-.8.22 0 .4-.188.4-.417 0-.229.36-.803.8-1.275.44-.472.8-1.095.8-1.383 0-.289.18-.525.4-.525.22 0 .4-.347.4-.771 0-.425.27-1.042.6-1.372.33-.33.6-.793.6-1.028 0-.236.18-.429.4-.429.22 0 .4-.278.4-.617 0-.339.351-.993.78-1.454.935-1.003 2.02-3.2 2.02-4.089 0-.352.18-.64.4-.64.22 0 .4-.27.4-.6 0-.33.159-.6.354-.6.195 0 .65-.585 1.011-1.3.361-.715 1.012-1.927 1.446-2.694.434-.766.789-1.711.789-2.1 0-.388.146-.706.325-.706.179 0 .573-.63.875-1.4.302-.77.696-1.4.875-1.4.179 0 .325-.36.325-.8 0-.44.138-.8.306-.8.371 0 1.694-2.969 1.694-3.803 0-.328.18-.597.4-.597.22 0 .4-.45.4-1s.18-1 .4-1c.22 0 .4-.36.4-.8 0-.44.18-.8.4-.8.22 0 .4-.345.4-.767 0-.421.184-.828.409-.903.226-.075.523-.855.662-1.733.139-.878.36-1.687.491-1.797.533-.447 1.238-2.04 1.238-2.795 0-.443.18-.805.4-.805.22 0 .4-.36.4-.8 0-.44.18-.8.4-.8.22 0 .4-.45.4-1s.16-1 .355-1c.195 0 .476-.81.624-1.8.149-.99.439-1.8.646-1.8.206 0 .375-.54.375-1.2 0-.66.18-1.2.4-1.2.22 0 .4-.45.4-1s.18-1 .4-1c.22 0 .4-.54.4-1.2 0-.66.18-1.2.4-1.2.22 0 .4-.439.4-.976 0-.537.162-1.077.361-1.2.198-.122.486-1.303.639-2.623.153-1.321.441-2.401.639-2.401.199 0 .361-.63.361-1.4 0-.77.18-1.4.4-1.4.22 0 .4-.72.4-1.6 0-.88.18-1.6.4-1.6.22 0 .4-.63.4-1.4 0-.77.18-1.4.4-1.4.22 0 .4-.81.4-1.8s.166-1.8.368-1.8c.202 0 .495-1.8.651-4 .156-2.2.441-4 .633-4 .191 0 .348-1.17.348-2.6 0-1.467.174-2.6.4-2.6.242 0 .4-1.733.4-4.4 0-2.667.158-4.4.4-4.4.251 0 .4-2.6.4-7s-.149-7-.4-7c-.24 0-.4-1.6-.4-4s-.16-4-.4-4c-.22 0-.4-.99-.4-2.2 0-1.21-.157-2.2-.348-2.2-.192 0-.474-1.44-.628-3.2-.153-1.76-.447-3.2-.651-3.2-.205 0-.373-.619-.373-1.376 0-.757-.18-1.488-.4-1.624-.22-.136-.4-.687-.4-1.224 0-.537-.18-.976-.4-.976-.22 0-.4-.63-.4-1.4 0-.77-.18-1.4-.4-1.4-.22 0-.4-.72-.4-1.6 0-.88-.167-1.6-.371-1.6s-.495-.99-.646-2.2c-.151-1.21-.434-2.2-.629-2.2s-.354-.45-.354-1-.18-1-.4-1c-.22 0-.4-.54-.4-1.2 0-.66-.18-1.2-.4-1.2-.22 0-.4-.27-.4-.6 0-.33-.18-.6-.4-.6-.22 0-.4-.54-.4-1.2 0-.66-.16-1.2-.355-1.2-.196 0-.474-.63-.619-1.4-.144-.77-.434-1.4-.644-1.4-.21 0-.382-.36-.382-.8 0-.44-.18-.8-.4-.8-.22 0-.4-.36-.4-.8 0-.44-.18-.8-.4-.8-.22 0-.4-.27-.4-.6 0-.33-.18-.6-.4-.6-.22 0-.4-.36-.4-.8 0-.44-.16-.8-.357-.8-.196 0-.469-.45-.607-1s-.428-1-.644-1c-.215 0-.392-.36-.392-.8 0-.44-.18-.8-.4-.8-.22 0-.4-.236-.4-.525 0-.288-.338-.887-.751-1.33-.413-.444-.875-1.198-1.027-1.676-.152-.478-.444-.869-.649-.869-.205 0-.373-.254-.373-.564 0-.311-.54-1.019-1.2-1.575-.66-.555-1.2-1.2-1.2-1.432 0-.383-.986-1.691-2.3-3.054-.275-.285-.5-.625-.5-.757 0-.457-13.577-13.818-14.042-13.818-.257 0-1.006-.63-1.664-1.4-.658-.77-1.461-1.4-1.784-1.4-.324 0-1.093-.54-1.71-1.2-.617-.66-1.253-1.2-1.414-1.2-.16 0-.583-.331-.939-.736-.356-.405-1.142-.858-1.747-1.008-.605-.149-1.1-.448-1.1-.664 0-.215-.23-.392-.512-.392-.281 0-.771-.36-1.088-.8-.317-.44-.814-.8-1.105-.8-.291 0-.922-.367-1.404-.815-.481-.449-1.329-.928-1.883-1.064-.554-.137-1.299-.58-1.655-.985-.356-.405-.941-.736-1.3-.736-.359 0-.653-.18-.653-.4 0-.22-.27-.4-.6-.4-.33 0-.6-.18-.6-.4 0-.22-.315-.406-.7-.413-.385-.007-1.049-.277-1.476-.6-.428-.323-1.103-.587-1.5-.587-.398 0-.724-.18-.724-.4 0-.22-.36-.4-.8-.4-.44 0-.801-.135-.803-.3-.004-.406-1.983-1.3-2.877-1.3-.396 0-.72-.18-.72-.4 0-.22-.345-.4-.767-.4-.421 0-.83-.192-.908-.426-.078-.234-.903-.528-1.834-.652-.93-.125-1.691-.384-1.691-.575 0-.191-.45-.347-1-.347s-1-.18-1-.4c0-.22-.36-.4-.8-.4-.44 0-.8-.18-.8-.4 0-.22-.362-.4-.805-.4-.443 0-1.118-.163-1.5-.363-1.235-.646-4.954-1.637-6.141-1.637-.635 0-1.154-.18-1.154-.4 0-.22-.63-.4-1.4-.4-.77 0-1.4-.18-1.4-.4 0-.22-.54-.4-1.2-.4-.66 0-1.2-.18-1.2-.4 0-.22-.81-.4-1.8-.4s-1.8-.161-1.8-.358c0-.197-.675-.455-1.5-.574-.825-.119-2.4-.397-3.5-.618-1.1-.221-3.035-.413-4.3-.426-1.265-.013-2.3-.204-2.3-.424 0-.226-1.133-.4-2.6-.4s-2.6-.174-2.6-.4c0-.237-1.467-.4-3.6-.4s-3.6-.163-3.6-.4c0-.259-4.859-.4-13.776-.4-8.753 0-13.867.146-14.024.4" fill="red"/></g></svg>